# xmcd
#
# Track frame offsets: 
#        183
#        14063
#        39413
#        54638
#        74965
#        96775
#        121953
#        138228
#        152655
#        166350
#        182803
#
# Disc length: 2735 seconds
#
# Revision: 5
# Processed by: cddbd v1.5.2PL0 Copyright (c) Steve Scherf et al.
# Submitted via: ExactAudioCopy v0.99pb4
#
DISCID=9c0aad0b
DTITLE=Steve Cropper - With a Little Help From My Friends (MFSL MFCD 8
DTITLE=37)
DYEAR=1900
DGENRE=Blues
TTITLE0=Crop-Dustin'
TTITLE1=Land of 1000 Dances
TTITLE2=99 1/2
TTITLE3=Boo-Ga-Loo Down Broadway
TTITLE4=Funky Broadway
TTITLE5=With a Little Help From My Friends
TTITLE6=Oh, Pretty Woman
TTITLE7=I'd Rather Drink Muddy Water
TTITLE8=The Way I Feel Tonight
TTITLE9=In the Midnight Hour
TTITLE10=Rattlesnake
EXTD=
EXTT0=
EXTT1=
EXTT2=
EXTT3=
EXTT4=
EXTT5=
EXTT6=
EXTT7=
EXTT8=
EXTT9=
EXTT10=
PLAYORDER=
